<?xml version="1.0" standalone="no"?>
<!DOCTYPE svg PUBLIC "-//W3C//DTD SVG 20010904//EN"
 "http://www.w3.org/TR/2001/REC-SVG-20010904/DTD/svg10.dtd">
<svg version="1.0" xmlns="http://www.w3.org/2000/svg"
 width="260.000000pt" height="260.000000pt" viewBox="0 0 260.000000 260.000000"
 preserveAspectRatio="xMidYMid meet">
<metadata>
Created by potrace 1.14, written by Peter Selinger 2001-2017
</metadata>
<g transform="translate(0.000000,260.000000) scale(0.100000,-0.100000)"
fill="#000000" stroke="none">
<path d="M40 1310 l0 -1250 1250 0 1250 0 0 1250 0 1250 -1250 0 -1250 0 0
-1250z m1170 1118 c0 -24 9 -250 20 -502 11 -253 18 -461 17 -463 -2 -1 -133
158 -291 354 l-287 356 48 50 c124 127 323 228 481 246 8 1 12 -14 12 -41z
m983 26 c192 -6 197 -7 197 -28 0 -11 7 -122 15 -246 8 -124 15 -247 15 -275
l0 -50 -41 75 c-113 206 -303 387 -529 503 l-75 39 110 -6 c61 -3 199 -9 308
-12z m-1464 -28 c-37 -18 -87 -46 -110 -63 -24 -16 -49 -32 -55 -36 -7 -4 -32
18 -63 56 l-51 62 27 6 c16 4 93 7 173 7 l145 1 -66 -33z m779 18 c264 -76
504 -312 626 -615 119 -296 131 -667 30 -967 -31 -93 -99 -242 -111 -242 -5 0
-163 154 -351 343 l-342 343 0 60 c0 32 11 277 25 544 14 267 25 500 25 518 0
38 13 40 98 16z m-1146 -299 c-85 -109 -108 -143 -148 -211 l-45 -79 5 150 c4
83 9 194 12 249 l6 98 94 -93 c91 -91 93 -93 76 -114z m838 -806 l59 -65 -36
-560 c-19 -307 -37 -561 -39 -563 -9 -10 -127 19 -186 45 -392 172 -638 600
-638 1109 0 244 58 485 157 653 l25 45 300 -299 c165 -165 326 -328 358 -365z
m480 -569 l261 -311 -26 -31 c-103 -122 -318 -252 -453 -274 l-42 -7 0 34 c0
19 -11 221 -25 449 -14 228 -25 435 -25 460 l1 45 23 -27 c13 -15 142 -167
286 -338z m736 -172 c-4 -84 -9 -193 -12 -242 l-6 -88 -94 93 -93 93 38 45
c43 52 107 146 142 208 13 24 26 43 28 43 2 0 0 -69 -3 -152z m-2184 52 c98
-161 262 -321 443 -428 63 -38 67 -42 40 -42 -49 0 -507 29 -510 32 -3 3 -25
438 -25 496 l0 37 16 -30 c8 -16 25 -45 36 -65z m1892 -410 c37 -46 53 -72 44
-74 -7 -3 -96 -7 -198 -9 l-185 -5 65 33 c36 19 94 54 130 78 36 25 70 45 76
46 5 0 36 -31 68 -69z"/>
</g>
</svg>
